<svg version="1.2" xmlns="http://www.w3.org/2000/svg" viewBox="0 0 724 524" width="85" height="63" fill="none">
	<title>logo-svg</title>
	<style>
		.s0 { fill: #b6f0f9 } 
		.s1 { fill: #cde9e3 } 
		.s2 { fill: #ffffff } 
		.s3 { fill: #211f1e } 
	</style>
	<path id="Layer" class="s0" d="m677 459.5c0 20.5-16.7 37.2-37.2 37.2h-558.1c-20.5 0-37.2-16.7-37.2-37.2v-316.3c0-20.5 16.7-37.2 37.2-37.2h558.1c20.5 0 37.2 16.7 37.2 37.2z"/>
	<path id="Layer" class="s1" d="m286.3 301.4c0 32.1 12.7 62.8 35.4 85.5 22.7 22.7 53.4 35.4 85.5 35.4 32.1 0 62.8-12.7 85.5-35.4 22.7-22.7 35.4-53.4 35.4-85.5 0-32.1-12.7-62.8-35.4-85.5-22.7-22.7-53.4-35.4-85.5-35.4-32.1 0-62.8 12.7-85.5 35.4-22.7 22.7-35.4 53.4-35.4 85.5z"/>
	<path id="Layer" class="s0" d="m99.9 50.1h111.6v55.8h-111.6z"/>
	<path id="Layer" class="s1" d="m109.2 171.1h93v55.8h-93z"/>
	<path id="Layer" class="s2" d="m465.7 320c-9.7 0-17.9-7.5-18.5-17.4-2.8-42.5-40-46.2-41.5-46.3-10.2-0.9-17.8-9.9-17-20.1 0.9-10.2 10-17.8 20.1-17 24.4 2.1 71.6 21.7 75.5 80.9 0.7 10.3-7.1 19.1-17.3 19.8-0.5 0.1-0.9 0.1-1.3 0.1z"/>
	<path id="Layer" fill-rule="evenodd" class="s3" d="m695.6 143.2v316.3c0 30.8-25 55.8-55.8 55.8h-558.1c-30.8 0-55.8-25-55.8-55.8v-316.3c0-30.7 24.8-55.6 55.4-55.8v-37.3c0-10.3 8.3-18.6 18.6-18.6h111.6c10.3 0 18.6 8.3 18.6 18.6v37.3h409.7c30.7 0 55.8 25.1 55.8 55.8zm-577.1-55.9h74.4v-18.6h-74.4zm539.9 55.9c0-10.3-8.3-18.6-18.6-18.6h-558.1c-10.3 0-18.6 8.3-18.6 18.6v316.3c0 10.3 8.3 18.6 18.6 18.6h558.1c10.3 0 18.6-8.3 18.6-18.6z"/>
	<path id="Layer" fill-rule="evenodd" class="s3" d="m546.7 301.3c0 76.9-62.6 139.5-139.5 139.5-76.9 0-139.5-62.6-139.5-139.5 0-76.9 62.6-139.5 139.5-139.5 76.9 0 139.5 62.6 139.5 139.5zm-37.2 0.1c0-56.4-45.9-102.3-102.3-102.3-56.4 0-102.3 45.9-102.3 102.3 0 56.4 45.9 102.3 102.3 102.3 56.4 0 102.3-45.9 102.3-102.3zm-298-130.2v55.8c0 5.1-4.2 9.3-9.3 9.3h-93c-5.1 0-9.3-4.2-9.3-9.3v-55.9c0-5.1 4.2-9.3 9.3-9.3h93c5.1 0 9.3 4.2 9.3 9.4zm-18.6 9.3h-74.4v37.2h74.4zm-60.1 243.7c0 9.1-7.4 16.5-16.5 16.5-9.1 0-16.5-7.4-16.5-16.5 0-9.1 7.4-16.5 16.5-16.5 9.1 0 16.5 7.4 16.5 16.5z"/>
</svg>